<svg width="512" height="512" viewBox="0 0 512 512" fill="none" xmlns="http://www.w3.org/2000/svg">
<g clip-path="url(#clip0_63_102)">
<path d="M74.6667 512H394.667C414.5 511.944 433.501 504.021 447.5 489.97C461.498 475.92 469.35 456.89 469.333 437.056V276.267C469.333 270.609 467.086 265.183 463.085 261.182C459.084 257.181 453.658 254.933 448 254.933C442.342 254.933 436.916 257.181 432.915 261.182C428.914 265.183 426.667 270.609 426.667 276.267V437.056C426.695 445.577 423.342 453.762 417.342 459.813C411.343 465.864 403.188 469.288 394.667 469.333H74.6667C66.1456 469.288 57.9905 465.864 51.9911 459.813C45.9918 453.762 42.6383 445.577 42.6667 437.056V117.611C42.6383 109.09 45.9918 100.905 51.9911 94.8539C57.9905 88.8025 66.1456 85.3786 74.6667 85.3334H234.667C240.325 85.3334 245.751 83.0858 249.752 79.085C253.752 75.0843 256 69.658 256 64.0001C256 58.3421 253.752 52.9159 249.752 48.9151C245.751 44.9144 240.325 42.6667 234.667 42.6667H74.6667C54.8332 42.7232 35.8322 50.6461 21.8338 64.6965C7.83534 78.747 -0.0170046 97.7772 2.76503e-05 117.611V437.056C-0.0170046 456.89 7.83534 475.92 21.8338 489.97C35.8322 504.021 54.8332 511.944 74.6667 512Z" fill="black"/>
<path d="M201.707 224.939L184.875 302.037C184.113 305.534 184.243 309.167 185.253 312.6C186.264 316.034 188.122 319.158 190.656 321.685C193.225 324.149 196.351 325.957 199.767 326.956C203.184 327.955 206.791 328.115 210.283 327.424L287.211 310.549C291.205 309.672 294.863 307.665 297.749 304.768L492.181 110.336C498.125 104.393 502.841 97.3371 506.058 89.5716C509.275 81.806 510.93 73.4828 510.93 65.0773C510.93 56.6718 509.275 48.3486 506.058 40.5831C502.841 32.8175 498.125 25.7618 492.181 19.8187C479.995 8.17358 463.789 1.67505 446.933 1.67505C430.078 1.67505 413.871 8.17358 401.685 19.8187L207.552 214.443C204.638 217.309 202.609 220.952 201.707 224.939ZM431.851 50.0053C435.909 46.1171 441.313 43.9465 446.933 43.9465C452.554 43.9465 457.957 46.1171 462.016 50.0053C465.963 54.0294 468.173 59.4409 468.173 65.0773C468.173 70.7137 465.963 76.1252 462.016 80.1493L446.933 95.232L416.768 65.0667L431.851 50.0053ZM241.984 240.171L386.496 95.296L416.363 125.312L271.787 270.229L233.493 278.635L241.984 240.171Z" fill="black"/>
</g>
<defs>
<clipPath id="clip0_63_102">
<rect width="512" height="512" fill="white"/>
</clipPath>
</defs>
</svg>
